# xmcd CD database file generated by OrangeCD 5.2
#
# Track frame offsets:
#	222
#	12560
#	23517
#	34515
#	45785
#	58777
#	72570
#	83310
#	94315
#	104500
#	117017
#	128175
#	138832
#	151775
#	161547
#	176647
#	185822
#	196755
#	210430
#	224315
#	237622
#	248157
#
# Disc length: 3415 seconds
#
# Revision: 3
# Processed by: cddbd v1.5.1PL0 Copyright (c) Steve Scherf et al.
# Submitted via: OrangeCD 5.2
#
DISCID=240d5516
DTITLE=Etta James - R 'n' B Dynamite
DYEAR=1987
DGENRE=blues
TTITLE0=W-O-M-A-N
TTITLE1=Number One
TTITLE2=I'm A Fool
TTITLE3=Strange Things Happen
TTITLE4=Hey Henry
TTITLE5=Hope You're Satisfied
TTITLE6=Good Rockin' Daddy
TTITLE7=Sunshine Of Love
TTITLE8=That's All
TTITLE9=How Big A Fool
TTITLE10=Tears Of Joy
TTITLE11=The Pick Up
TTITLE12=Market Place
TTITLE13=Tough Lover
TTITLE14=Do Something Crazy
TTITLE15=Be My Lovey Dovey
TTITLE16=Nobody Loves You (Like Me)
TTITLE17=Hickory Dickory Dock
TTITLE18=You Know What I Mean
TTITLE19=Roll With Me Henry (The Wallflower)
TTITLE20=Baby, Baby, Everynight
TTITLE21=We're In Love
EXTD=
EXTT0=
EXTT1=
EXTT2=
EXTT3=
EXTT4=
EXTT5=
EXTT6=
EXTT7=
EXTT8=
EXTT9=
EXTT10=
EXTT11=
EXTT12=
EXTT13=
EXTT14=
EXTT15=
EXTT16=
EXTT17=
EXTT18=
EXTT19=
EXTT20=
EXTT21=
PLAYORDER=
